<svg width="24" height="24" viewBox="0 0 24 24" fill="none" xmlns="http://www.w3.org/2000/svg">
<path d="M22.4204 8.25215L13.2677 5.12769C12.7689 4.95744 12.2308 4.95744 11.7324 5.12769L2.57931 8.25215C1.8069 8.51575 1.8069 9.65069 2.57931 9.91428L4.17499 10.459C3.82487 10.9398 3.60962 11.5265 3.5883 12.1688C3.27231 12.3701 3.04984 12.7332 3.04984 13.1667C3.04984 13.5597 3.23622 13.8904 3.50462 14.1019L2.66692 18.2902C2.59407 18.6544 2.84345 19 3.17912 19H5.02024C5.35624 19 5.60562 18.6544 5.53277 18.2902L4.69507 14.1019C4.96347 13.8904 5.14985 13.5597 5.14985 13.1667C5.14985 12.7449 4.93755 12.392 4.636 12.1871C4.66094 11.6395 4.91294 11.1553 5.3149 10.8483L11.7321 13.0391C12.0293 13.1405 12.5996 13.267 13.2674 13.0391L22.4204 9.91464C23.1932 9.65069 23.1932 8.51611 22.4204 8.25215ZM13.5758 14.1544C12.6397 14.4737 11.842 14.2973 11.4236 14.1544L6.66513 12.5301L6.19985 16.6667C6.19985 17.9555 9.02043 19 12.4999 19C15.9793 19 18.7999 17.9555 18.7999 16.6667L18.3346 12.5298L13.5758 14.1544Z" fill="#a4bac1"/>
</svg>
