<?xml version="1.0" standalone="no"?>
<!DOCTYPE svg PUBLIC "-//W3C//DTD SVG 20010904//EN"
 "http://www.w3.org/TR/2001/REC-SVG-20010904/DTD/svg10.dtd">
<svg version="1.0" xmlns="http://www.w3.org/2000/svg"
 width="700.000000pt" height="700.000000pt" viewBox="0 0 700.000000 700.000000"
 preserveAspectRatio="xMidYMid meet">
<metadata>
Created by potrace 1.11, written by Peter Selinger 2001-2013
</metadata>
<g transform="translate(0.000000,700.000000) scale(0.100000,-0.100000)"
fill="#000000" stroke="none">
<path d="M2968 6406 c-1 -2 -32 -6 -68 -9 -36 -4 -78 -9 -95 -12 -16 -3 -59
-10 -95 -16 -36 -6 -108 -22 -160 -36 -398 -104 -746 -273 -1063 -518 -54 -41
-70 -55 -172 -145 -144 -128 -339 -349 -440 -500 -27 -41 -53 -77 -56 -80 -18
-15 -172 -301 -213 -395 -111 -254 -191 -526 -220 -745 -4 -25 -8 -61 -11 -80
-24 -183 -24 -565 0 -735 3 -16 7 -57 11 -90 3 -33 8 -64 11 -68 3 -5 8 -24
10 -43 6 -45 -24 -73 -148 -138 -124 -65 -216 -123 -223 -141 -13 -34 58 -13
187 53 73 38 143 72 157 75 45 11 69 -22 110 -148 149 -457 369 -815 727
-1181 18 -18 33 -37 33 -42 0 -8 -67 -72 -175 -167 -134 -119 -255 -250 -255
-277 0 -10 3 -18 7 -18 10 0 73 50 174 140 103 91 212 188 269 238 l36 30 64
-54 c276 -234 550 -395 890 -522 142 -54 400 -119 539 -138 25 -3 55 -8 66
-10 90 -18 500 -25 625 -11 36 4 85 10 110 13 526 61 1109 319 1507 669 242
213 522 551 664 801 132 233 247 543 298 804 20 98 21 104 27 150 3 25 8 53
10 63 3 16 6 52 20 192 5 57 5 392 -1 440 -2 22 -7 65 -10 95 -3 30 -10 80
-15 110 -5 30 -11 69 -14 85 -19 126 -83 349 -149 517 l-35 87 152 149 c349
347 472 490 640 744 156 238 320 571 261 530 -6 -4 -47 -52 -92 -107 -91 -112
-224 -246 -358 -361 -75 -64 -334 -262 -411 -314 -129 -88 -344 -230 -361
-239 -28 -14 -35 -8 -123 114 -77 107 -68 96 -168 215 -98 116 -237 253 -357
349 -49 40 -99 80 -109 88 -154 126 -497 318 -726 408 -160 62 -391 129 -488
140 -20 3 -50 7 -67 9 -16 3 -60 8 -96 11 -36 4 -86 9 -110 11 -52 6 -515 14
-521 10z m302 -230 c0 -2 3 -12 6 -21 5 -13 2 -16 -11 -14 -21 5 -30 39 -9 39
8 0 14 -2 14 -4z m594 -335 c-10 -43 -23 -49 -44 -21 -24 31 -25 54 -3 75 16
16 18 16 35 -5 12 -15 16 -31 12 -49z m-767 3 c8 -21 -13 -42 -28 -27 -13 13
-5 43 11 43 6 0 13 -7 17 -16z m343 -43 c0 -27 -19 -36 -37 -18 -18 18 -9 37
18 37 12 0 19 -7 19 -19z m-712 -204 c2 -11 -3 -17 -16 -17 -20 0 -36 23 -24
34 11 12 37 1 40 -17z m452 8 c7 -9 10 -18 7 -21 -10 -11 -37 5 -37 21 0 19
14 19 30 0z m-380 -51 c0 -20 -30 -30 -41 -13 -6 9 -3 18 8 26 18 14 33 8 33
-13z m67 -40 c7 -20 -17 -37 -34 -23 -15 13 -6 39 13 39 8 0 17 -7 21 -16z
m573 -54 c9 -17 8 -20 -10 -20 -13 0 -20 7 -20 20 0 11 4 20 10 20 5 0 14 -9
20 -20z m-1043 -61 c29 -6 54 -10 55 -9 2 1 46 -14 99 -33 264 -96 546 -273
846 -532 159 -137 349 -327 463 -464 25 -29 50 -59 55 -65 6 -6 45 -54 87
-106 81 -101 111 -128 162 -147 39 -14 126 -16 161 -3 20 7 27 7 31 -4 7 -18
11 -225 5 -232 -2 -2 -11 2 -20 9 -34 28 -103 68 -95 55 4 -7 32 -51 61 -97
30 -46 90 -147 134 -225 44 -77 84 -148 89 -156 13 -22 78 -154 116 -237 19
-40 36 -73 39 -73 3 0 20 50 31 95 3 14 130 458 153 535 11 36 28 94 38 130
17 60 22 68 73 102 67 45 147 87 181 93 40 9 215 4 223 -6 2 -2 18 -44 36 -94
169 -474 286 -779 337 -883 20 -40 33 -75 29 -79 -10 -10 -501 -9 -549 1 l-38
7 32 44 c51 71 38 154 -27 175 -49 17 -309 18 -325 3 -20 -20 -23 -125 -6
-177 19 -56 15 -59 -71 -63 -36 -1 -67 -5 -70 -8 -3 -3 -1 -25 6 -48 40 -137
59 -222 68 -302 3 -27 8 -54 11 -58 13 -21 11 -315 -2 -376 -30 -137 -101
-238 -206 -296 -48 -26 -58 -27 -169 -26 -200 2 -336 28 -471 90 -84 39 -53
39 67 0 142 -45 165 -49 302 -54 242 -7 370 76 416 272 18 80 18 328 0 443
-37 233 -99 383 -150 363 -14 -5 -16 -2 -9 23 18 66 10 107 -42 217 -29 59
-56 107 -61 107 -6 0 -10 -16 -10 -35 0 -53 -37 -119 -102 -179 -107 -99 -267
-157 -415 -151 -44 2 -91 6 -105 9 -14 4 -59 12 -102 18 -76 11 -76 11 -132
-21 -67 -38 -76 -38 -76 -5 0 32 79 110 147 144 43 22 58 24 158 22 132 -3
209 11 241 44 34 33 30 58 -17 109 -23 25 -40 47 -38 49 21 20 275 175 295
180 20 5 35 1 55 -13 16 -12 31 -21 34 -21 23 0 -210 353 -272 412 -15 15 -39
31 -53 36 -56 21 -175 -6 -207 -48 -18 -22 -16 -54 7 -82 12 -16 78 -52 170
-93 82 -38 156 -75 162 -83 10 -11 7 -18 -16 -36 -40 -29 -209 -138 -275 -176
l-54 -32 -71 26 c-185 68 -260 169 -265 359 -3 115 30 173 138 241 41 26 182
78 204 75 31 -4 93 2 106 10 12 8 7 19 -24 58 -471 582 -1008 1024 -1427 1171
-267 94 -482 64 -590 -81 -36 -49 -75 -129 -83 -172 -6 -32 -6 -262 -1 -305 2
-14 7 -48 10 -75 31 -234 122 -502 288 -844 63 -131 86 -187 78 -195 -16 -16
-40 3 -78 60 -31 46 -143 264 -169 329 -7 17 -21 52 -32 78 -69 163 -138 411
-159 575 -13 107 -7 332 11 402 37 138 107 245 192 296 82 48 242 62 382 33z
m1470 -203 c-4 -9 -11 -16 -17 -16 -17 0 -24 31 -9 41 18 11 34 -5 26 -25z
m-1347 -191 c10 -12 10 -21 2 -40 -13 -28 -39 -32 -67 -11 -18 13 -18 15 -2
40 20 29 48 34 67 11z m-213 -100 c3 -9 3 -19 -1 -22 -7 -7 -36 16 -36 28 0
15 30 10 37 -6z m-1102 -845 c117 -19 99 0 275 -300 170 -289 185 -313 195
-309 11 5 13 262 2 379 -13 134 -20 162 -53 208 l-17 23 142 -2 c77 0 143 -5
146 -10 3 -5 -4 -21 -15 -37 -15 -20 -23 -52 -29 -105 -9 -100 -7 -708 4 -770
5 -31 20 -65 42 -94 19 -25 32 -47 29 -50 -4 -4 -103 -5 -370 -4 l-75 1 -68
113 c-37 61 -73 121 -79 132 -24 42 -253 428 -257 432 -2 2 -3 -108 -2 -244 2
-275 8 -311 61 -385 l34 -48 -103 0 c-56 -1 -137 -2 -180 -3 l-79 -2 47 41
c37 31 49 50 56 85 6 24 12 211 15 414 5 397 5 404 -46 480 -55 82 -60 78 112
71 84 -3 180 -10 213 -16z m1747 -18 c3 -4 20 -47 38 -97 17 -49 101 -275 186
-501 85 -227 154 -419 154 -427 0 -9 -12 -18 -28 -22 -23 -5 -349 -9 -489 -6
l-32 1 24 43 c40 68 26 169 -25 197 -25 14 -201 16 -224 3 -17 -10 11 -51 208
-303 154 -197 160 -205 141 -220 -8 -6 -23 -9 -34 -5 -27 8 -103 93 -206 230
-32 44 -71 94 -85 111 -14 17 -43 52 -65 79 -84 102 -90 101 -85 -10 1 -22 8
-55 16 -74 8 -19 11 -38 6 -43 -5 -5 -77 -10 -160 -11 -166 -2 -159 -6 -99 58
62 64 96 156 213 568 47 166 87 310 90 319 3 11 -4 27 -18 41 -13 12 -36 37
-53 55 l-30 33 275 -6 c151 -3 278 -9 282 -13z m1945 2 c7 -20 -17 -37 -34
-23 -15 13 -6 39 13 39 8 0 17 -7 21 -16z m-1291 -837 c4 -14 1 -25 -12 -34
-25 -18 -38 -12 -42 22 -6 46 40 57 54 12z m1504 -472 c0 -21 -30 -31 -40 -14
-11 17 -3 29 21 29 10 0 19 -7 19 -15z m362 -102 c22 -20 23 -31 1 -55 -20
-22 -37 -23 -57 -2 -21 20 -20 26 4 52 25 26 28 27 52 5z m-2342 -94 c189
-150 236 -202 220 -244 -11 -29 -53 -49 -86 -41 -44 11 -116 69 -195 157 -73
80 -110 129 -122 162 -8 21 24 57 51 57 9 0 69 -41 132 -91z m2025 44 c1 -12
-4 -24 -12 -27 -15 -6 -37 29 -28 45 11 17 38 5 40 -18z m-422 -7 c8 -19 -15
-37 -32 -26 -17 10 -7 40 13 40 7 0 16 -6 19 -14z m-214 -172 c-15 -18 -39
-18 -39 0 0 16 19 25 38 18 9 -3 10 -8 1 -18z m1041 16 c11 -6 17 -17 14 -25
-8 -20 -27 -19 -48 4 -16 18 -14 24 12 30 2 1 12 -4 22 -9z m-3323 -56 c7 -20
-17 -37 -34 -23 -15 13 -6 39 13 39 8 0 17 -7 21 -16z m2496 2 c8 -19 -15 -37
-32 -26 -17 10 -7 40 13 40 7 0 16 -6 19 -14z m665 -27 c-9 -6 -14 -3 -16 8
-2 8 2 19 10 24 9 6 14 3 16 -8 2 -8 -2 -19 -10 -24z m-3910 -121 c4 -19 -24
-31 -45 -20 -13 8 -13 11 2 26 20 19 39 17 43 -6z m3666 -129 c-7 -12 -31 -11
-39 1 -4 6 -1 18 6 26 12 14 14 14 26 -2 7 -9 10 -21 7 -25z m-3221 -3 c8 -19
-15 -37 -32 -26 -17 10 -7 40 13 40 7 0 16 -6 19 -14z m2592 5 c3 -6 -3 -15
-14 -21 -21 -11 -37 2 -26 20 8 13 32 13 40 1z m-3082 -47 c-6 -16 -29 -19
-38 -4 -4 6 -1 17 5 26 15 18 42 0 33 -22z m3766 -34 c28 -14 34 -40 15 -61
-22 -24 -46 -24 -68 -1 -15 18 -15 21 5 45 23 30 24 31 48 17z m-3649 -50 c0
-13 -7 -20 -20 -20 -13 0 -20 7 -20 20 0 13 7 20 20 20 13 0 20 -7 20 -20z
m863 8 c2 -7 0 -24 -4 -37 -8 -19 -12 -21 -24 -11 -11 9 -11 17 -3 36 12 26
23 31 31 12z m2943 1 c3 -6 1 -16 -5 -22 -9 -9 -14 -8 -21 3 -5 8 -10 18 -10
23 0 11 28 8 36 -4z m-1697 -28 c12 -21 5 -32 -15 -24 -16 6 -19 43 -4 43 5 0
14 -8 19 -19z m-1526 -205 c8 -19 -15 -37 -32 -26 -17 10 -7 40 13 40 7 0 16
-6 19 -14z m2474 -282 c7 -20 -17 -37 -34 -23 -15 13 -6 39 13 39 8 0 17 -7
21 -16z m-2383 -46 c13 -21 -2 -51 -28 -56 -19 -4 -66 23 -66 38 0 12 51 40
69 37 8 -1 19 -10 25 -19z"/>
<path d="M5024 3698 c-12 -16 -23 -50 -63 -189 -36 -123 -37 -135 -15 -143 21
-8 163 -8 203 0 27 6 30 9 25 33 -12 50 -119 304 -130 308 -6 2 -15 -2 -20 -9z"/>
<path d="M2587 3710 c-16 -42 -73 -238 -84 -287 -4 -17 1 -25 20 -32 26 -10
214 -8 224 3 6 5 -57 165 -117 301 l-27 60 -16 -45z"/>
</g>
</svg>
