<svg id="e653ea02-d6ba-4684-8a77-5b665067d668" data-name="Layer 1" xmlns="http://www.w3.org/2000/svg" viewBox="0 0 22.816 14.627">
  <defs>
    <style>
      .a8f0ea0c-9479-40d5-8732-8d2b362cb3e1 {
        fill: #a4bac1;
        fill-rule: evenodd;
      }
    </style>
  </defs>
  <path class="a8f0ea0c-9479-40d5-8732-8d2b362cb3e1" d="M0,11.41a.813.813,0,0,0,.815.812H20.033l-5.128,5.113a.814.814,0,0,0,.264,1.327.819.819,0,0,0,.625,0,.8.8,0,0,0,.264-.177l6.519-6.5a.811.811,0,0,0,0-1.15l-6.519-6.5a.8.8,0,0,0-.264-.177.819.819,0,0,0-.625,0,.812.812,0,0,0-.264,1.327L20.033,10.6H.815A.814.814,0,0,0,0,11.41Z" transform="translate(0 -4.096)"/>
</svg>
