<svg id="ade48cc3-dc42-4da3-8bc5-e95203817f53" data-name="Layer 1" xmlns="http://www.w3.org/2000/svg" viewBox="0 0 22.816 14.627">
  <defs>
    <style>
      .a11b6f78-0539-4722-8442-de5daec3cc87 {
        fill: #a4bac1;
        fill-rule: evenodd;
      }
    </style>
  </defs>
  <path class="a11b6f78-0539-4722-8442-de5daec3cc87" d="M22.816,11.41A.811.811,0,0,0,22,10.6H2.783L7.912,5.485a.811.811,0,0,0,0-1.15.816.816,0,0,0-.265-.177.816.816,0,0,0-.624,0,.816.816,0,0,0-.265.177l-6.519,6.5a.811.811,0,0,0,0,1.15l6.519,6.5a.816.816,0,0,0,.265.177.816.816,0,0,0,.624,0,.816.816,0,0,0,.265-.177.811.811,0,0,0,0-1.15L2.783,12.223H22a.813.813,0,0,0,.814-.813Z" transform="translate(0 -4.096)"/>
</svg>
