<svg width="33" height="33" viewBox="0 0 33 33" fill="none" xmlns="http://www.w3.org/2000/svg">
<path d="M7.25003 30.1863L13.0912 28.82L14.9725 22.6058L10.7365 18.0279L5.06009 19.3555L3.02825 26.0674L7.25003 30.1863Z" stroke="#a4bac1" stroke-width="2.5"/>
<path d="M8.6624 21.6685L8.82653 23.1909L10.3181 23.8546L11.5867 22.9176L11.4273 21.4381L9.81628 20.7214L8.6624 21.6685Z" fill="#a4bac1"/>
<path d="M6.0028 24.111L6.08926 24.913L6.87492 25.2626L7.54311 24.769L7.45922 23.9897L6.61064 23.6121L6.0028 24.111Z" fill="#a4bac1"/>
<path d="M4.07738 18.2969L13.7558 19.6054L14.0702 29.8634L24.5 15.7874L17.2163 20.795L31.0002 1.52788L12.664 15.1046L14.9402 10.5523L4.07738 18.2969Z" fill="#a4bac1"/>
</svg>

