<svg width="24" height="24" viewBox="0 0 24 24" fill="none" xmlns="http://www.w3.org/2000/svg">
<path d="M21 7H3C2.73478 7 2.48043 6.89464 2.29289 6.70711C2.10536 6.51957 2 6.26522 2 6C2 5.73478 2.10536 5.48043 2.29289 5.29289C2.48043 5.10536 2.73478 5 3 5H21C21.2652 5 21.5196 5.10536 21.7071 5.29289C21.8946 5.48043 22 5.73478 22 6C22 6.26522 21.8946 6.51957 21.7071 6.70711C21.5196 6.89464 21.2652 7 21 7Z" fill="#a4bac1"/>
<path d="M17.1 12H6.9C6.66131 12 6.43239 11.8946 6.2636 11.7071C6.09482 11.5196 6 11.2652 6 11C6 10.7348 6.09482 10.4804 6.2636 10.2929C6.43239 10.1054 6.66131 10 6.9 10H17.1C17.3387 10 17.5676 10.1054 17.7364 10.2929C17.9052 10.4804 18 10.7348 18 11C18 11.2652 17.9052 11.5196 17.7364 11.7071C17.5676 11.8946 17.3387 12 17.1 12Z" fill="#a4bac1"/>
<path d="M13.0625 17H9.9375C9.68886 17 9.4504 16.8946 9.27459 16.7071C9.09877 16.5196 9 16.2652 9 16C9 15.7348 9.09877 15.4804 9.27459 15.2929C9.4504 15.1054 9.68886 15 9.9375 15H13.0625C13.3111 15 13.5496 15.1054 13.7254 15.2929C13.9012 15.4804 14 15.7348 14 16C14 16.2652 13.9012 16.5196 13.7254 16.7071C13.5496 16.8946 13.3111 17 13.0625 17Z" fill="#a4bac1"/>
</svg>
