<svg width="33" height="21" viewBox="0 0 33 21" fill="#f0f8fc" xmlns="http://www.w3.org/2000/svg">
<g>
<circle cx="16.5" cy="10.5" r="10" fill="black" />
<path d="M16.436 0C10.916 0 6.44604 4.57532 6.44604 10.2128C6.44604 15.8502 10.916 20.4255 16.436 20.4255C21.966 20.4255 26.446 15.8502 26.446 10.2128C26.446 4.57532 21.966 0 16.436 0ZM16.446 18.383C12.026 18.383 8.44604 14.7268 8.44604 10.2128C8.44604 5.69872 12.026 2.04255 16.446 2.04255C20.866 2.04255 24.446 5.69872 24.446 10.2128C24.446 14.7268 20.866 18.383 16.446 18.383Z" fill="#f0f8fc"/>
<path d="M16.946 5.10635H15.446V11.234L20.696 14.451L21.446 13.1949L16.946 10.4681V5.10635Z" fill="#f0f8fc"/>
<path d="M32.7345 10.7815L32.7311 10.7852L30.7311 12.7852C30.5901 12.924 30.3999 13.0014 30.2021 13.0006C30.0042 12.9998 29.8147 12.9208 29.6748 12.7809C29.5349 12.641 29.4559 12.4515 29.4551 12.2537C29.4543 12.0558 29.5317 11.8657 29.6705 11.7246L30.3901 11.0049L25.1998 11.0037C25.0009 11.0037 24.8101 10.9247 24.6695 10.784C24.5288 10.6434 24.4498 10.4526 24.4498 10.2537C24.4498 10.0548 24.5288 9.86404 24.6695 9.72339C24.8101 9.58274 25.0009 9.50372 25.1998 9.50372L30.3902 9.50493L29.6705 8.78524C29.5317 8.6442 29.4543 8.45405 29.4551 8.25619C29.4559 8.05834 29.5349 7.86882 29.6748 7.72892C29.8147 7.58901 30.0042 7.51006 30.2021 7.50925C30.3999 7.50845 30.5901 7.58586 30.7311 7.72462L32.7311 9.72461L32.7345 9.72836C32.7507 9.74461 32.7661 9.76168 32.7807 9.77943C32.7882 9.78868 32.7949 9.79836 32.802 9.8078C32.8095 9.81793 32.8173 9.8278 32.8244 9.8383C32.8319 9.84949 32.8383 9.86099 32.8451 9.87249C32.8507 9.88205 32.8569 9.89137 32.8621 9.90124C32.8683 9.9128 32.8735 9.92468 32.8791 9.93649C32.884 9.94686 32.8892 9.95711 32.8936 9.96774C32.8984 9.97924 32.9022 9.99099 32.9064 10.0026C32.9104 10.0141 32.9149 10.0254 32.9184 10.037C32.922 10.0488 32.9246 10.0607 32.9275 10.0727C32.9305 10.0845 32.9338 10.0962 32.9363 10.1082C32.939 10.122 32.9407 10.1359 32.9425 10.1499C32.944 10.1602 32.946 10.1704 32.947 10.1808C32.9519 10.2301 32.9519 10.2798 32.947 10.3291C32.946 10.3396 32.944 10.3497 32.9426 10.36C32.9406 10.3739 32.939 10.3879 32.9362 10.4017C32.9339 10.4137 32.9305 10.4254 32.9275 10.4372C32.9246 10.4491 32.922 10.4611 32.9184 10.4728C32.9149 10.4845 32.9104 10.4958 32.9064 10.5072C32.9022 10.5189 32.8984 10.5306 32.8936 10.5421C32.8892 10.5527 32.884 10.563 32.8791 10.5734C32.8735 10.5852 32.8683 10.5971 32.8621 10.6086C32.8569 10.6185 32.8508 10.6278 32.8451 10.6374C32.8383 10.6489 32.8318 10.6604 32.8244 10.6716C32.8173 10.6821 32.8095 10.6919 32.8019 10.7021C32.7949 10.7115 32.7883 10.7212 32.7807 10.7304C32.7661 10.7482 32.7507 10.7652 32.7345 10.7815ZM0.148776 10.0232C0.141276 10.0333 0.133401 10.0432 0.126276 10.0537C0.118901 10.0649 0.112401 10.0764 0.105588 10.0879C0.0999634 10.0974 0.0938382 10.1067 0.0885882 10.1166C0.0823382 10.1282 0.0770883 10.1401 0.0715258 10.152C0.0666508 10.1624 0.0615258 10.1725 0.0571508 10.1831C0.0523383 10.1946 0.0484007 10.2064 0.0442757 10.2181C0.0402132 10.2295 0.0358384 10.2407 0.0323384 10.2524C0.0287134 10.2642 0.0260884 10.2761 0.0231509 10.288C0.0202134 10.2999 0.0169007 10.3115 0.0144007 10.3235C0.0117132 10.3374 0.0100258 10.3513 0.00815079 10.3652C0.00665079 10.3755 0.00465087 10.3857 0.00365087 10.3962C-0.00123209 10.4455 -0.00123209 10.4952 0.00365087 10.5445C0.00465087 10.5549 0.00665082 10.5651 0.00808832 10.5754C0.0100883 10.5893 0.0117134 10.6032 0.0144634 10.617C0.0168384 10.6291 0.0202134 10.6408 0.0232134 10.6525C0.0260884 10.6644 0.0287134 10.6764 0.0323384 10.6882C0.0358384 10.6999 0.0402132 10.7111 0.0442757 10.7225C0.0484632 10.7342 0.0523383 10.746 0.0571508 10.7575C0.0615258 10.7681 0.0666508 10.7782 0.0715258 10.7886C0.0771508 10.8005 0.0824007 10.8124 0.0885882 10.824C0.0938382 10.8339 0.0999009 10.8432 0.105588 10.8527C0.112401 10.8642 0.118901 10.8757 0.126338 10.8869C0.133401 10.8974 0.141213 10.9073 0.148776 10.9174C0.155838 10.9269 0.162401 10.9365 0.170026 10.9458C0.184588 10.9635 0.200026 10.9805 0.216151 10.9969L0.219588 11.0006L2.21959 13.0006C2.36063 13.1394 2.55078 13.2168 2.74864 13.216C2.94649 13.2152 3.13601 13.1362 3.27591 12.9963C3.41582 12.8564 3.49477 12.6669 3.49558 12.469C3.49638 12.2712 3.41897 12.081 3.28021 11.94L2.56059 11.2203L7.69608 11.2191C7.895 11.2191 8.08576 11.1401 8.22641 10.9994C8.36707 10.8587 8.44608 10.668 8.44608 10.4691C8.44608 10.2702 8.36707 10.0794 8.22641 9.93874C8.08576 9.79808 7.895 9.71907 7.69608 9.71907L2.56053 9.72029L3.28021 9.0006C3.41897 8.85956 3.49638 8.66941 3.49558 8.47155C3.49477 8.2737 3.41582 8.08418 3.27591 7.94428C3.13601 7.80437 2.94649 7.72542 2.74864 7.72461C2.55078 7.72381 2.36063 7.80122 2.21959 7.93998L0.219588 9.93998L0.216151 9.94373C0.200026 9.95998 0.184588 9.97704 0.169963 9.99479C0.162463 10.004 0.155901 10.0137 0.148776 10.0232Z" fill="#f0f8fc"/>
</g>
</svg>
